<svg viewBox="0 0 1000 1000" fill="none" xmlns="http://www.w3.org/2000/svg">
<g clip-path="url(#clip0_203_2)">
<rect width="100%" height="100%" fill="#FED7AA"/>
<path d="M333.454 753.81L404.165 824.52C413.928 834.283 429.757 834.283 439.52 824.52L510.231 753.81C519.994 744.047 519.994 728.217 510.231 718.454L439.52 647.744C429.757 637.981 413.928 637.981 404.165 647.744L333.454 718.454C323.691 728.217 323.691 744.047 333.454 753.81Z" stroke="#7C2D12" stroke-width="20" stroke-linecap="round" stroke-linejoin="round"/>
<path d="M316.484 666.128L254.612 666.128C247.695 666.486 241.157 669.395 236.259 674.292C231.362 679.189 228.453 685.728 228.096 692.645L228.803 780.326C229.16 787.243 232.069 793.782 236.966 798.679C241.864 803.576 248.402 806.485 255.319 806.843L315.777 806.843" stroke="#7C2D12" stroke-width="20" stroke-linecap="round" stroke-linejoin="round"/>
<path d="M457.198 736.132L457.111 736.045" stroke="#7C2D12" stroke-width="20" stroke-linecap="round" stroke-linejoin="round"/>
<path d="M386.487 736.132L386.4 736.045" stroke="#7C2D12" stroke-width="20" stroke-linecap="round" stroke-linejoin="round"/>
<path d="M271.583 762.648L271.495 762.561" stroke="#7C2D12" stroke-width="20" stroke-linecap="round" stroke-linejoin="round"/>
<path d="M271.583 709.616L271.495 709.528" stroke="#7C2D12" stroke-width="20" stroke-linecap="round" stroke-linejoin="round"/>
<g clip-path="url(#clip1_203_2)">
<path d="M684.525 120.812L838.581 209.756C850.558 216.583 859.571 227.616 863.87 240.715C868.169 253.813 867.448 268.042 861.847 280.639L665.998 719.921L329 525.355L611.746 136.243C619.826 125.133 631.734 117.408 645.173 114.558C658.613 111.709 672.631 113.936 684.525 120.812Z" stroke="#7C2D12" stroke-width="20" stroke-linecap="round" stroke-linejoin="round"/>
</g>
</g>
<defs>
<clipPath id="clip0_203_2">
<rect width="100%" height="100%" fill="white"/>
</clipPath>
<clipPath id="clip1_203_2">
<rect width="66.7%" height="66.7%" fill="white" transform="translate(77.8% 83.3%) rotate(-150)"/>
</clipPath>
</defs>
</svg>